<?xml version="1.0" encoding="UTF-8"?>
<svg id="Ebene_2" data-name="Ebene 2" xmlns="http://www.w3.org/2000/svg" viewBox="0 0 553.74 93.217">
  <defs>
    <style>
      .cls-1 {
        fill: #f1f1f1;
      }
    </style>
  </defs>
  <g id="Ebene_1" data-name="Ebene 1">
    <g>
      <path class="cls-1" d="M0,1.291h4.518v86.245h16.526v4.131H0V1.291Z"/>
      <path class="cls-1" d="M27.886,1.291h4.518v90.377h-4.518V1.291Z"/>
      <path class="cls-1" d="M46.219,89.731c-2.239-2.151-3.357-5.378-3.357-9.683V12.653c0-4.216,1.096-7.379,3.292-9.49,2.194-2.108,5.012-3.163,8.456-3.163h.387c3.443,0,6.262,1.055,8.457,3.163,2.195,2.11,3.292,5.273,3.292,9.49v17.688h-4.647V12.266c0-2.582-.668-4.584-2.002-6.004-1.336-1.42-3.078-2.131-5.229-2.131h-.129c-2.152,0-3.896.71-5.228,2.131-1.337,1.42-2.002,3.421-2.002,6.004v68.169c0,2.669.689,4.735,2.066,6.197,1.375,1.465,3.183,2.195,5.422,2.195h.259c2.237,0,4.067-.73,5.487-2.195,1.42-1.462,2.13-3.528,2.13-6.197v-23.627h4.519v23.24c0,4.305-1.12,7.533-3.357,9.683-2.239,2.151-5.123,3.228-8.651,3.228h-.388c-3.615,0-6.541-1.077-8.778-3.228Z"/>
      <path class="cls-1" d="M76.818,1.291h4.518v40.024h15.364V1.291h4.648v90.377h-4.648v-46.221h-15.364v46.221h-4.518V1.291Z"/>
      <path class="cls-1" d="M119.552,5.423h-11.877V1.291h28.402v4.132h-11.877v86.245h-4.648V5.423Z"/>
      <path class="cls-1" d="M140.078,85.471h5.165v6.197h-5.165v-6.197Z"/>
      <path class="cls-1" d="M178.939,1.291h11.748c9.812,0,14.718,4.735,14.718,14.202v16.138c0,2.755-.451,5.035-1.355,6.843-.904,1.808-2.346,3.228-4.325,4.261,2.237,1.033,3.851,2.475,4.842,4.325.989,1.852,1.485,4.24,1.485,7.165v23.24c0,9.469-4.906,14.202-14.719,14.202h-12.394V1.291ZM190.945,40.024c5.25,0,7.876-2.582,7.876-7.746V14.848c0-5.164-2.626-7.746-7.876-7.746h-5.422v32.923h5.422ZM191.592,85.857c5.248,0,7.875-2.582,7.875-7.746v-24.531c0-5.164-2.627-7.746-7.875-7.746h-6.069v40.023h6.069Z"/>
      <path class="cls-1" d="M214.961,1.291h6.585v84.566h16.654v5.81h-23.24V1.291Z"/>
      <path class="cls-1" d="M244.011,1.291h6.585v90.377h-6.585V1.291Z"/>
      <path class="cls-1" d="M263.829,89.408c-2.452-2.366-3.679-5.917-3.679-10.651V13.944c0-4.648,1.203-8.134,3.615-10.458,2.409-2.324,5.553-3.486,9.425-3.486h.387c3.875,0,7.014,1.162,9.425,3.486,2.409,2.324,3.616,5.81,3.616,10.458v16.397h-6.585V13.298c0-2.408-.602-4.26-1.807-5.552-1.206-1.291-2.798-1.936-4.777-1.936h-.129c-1.981,0-3.573.645-4.777,1.936-1.206,1.292-1.807,3.143-1.807,5.552v66.104c0,2.498.646,4.412,1.936,5.746,1.292,1.336,2.926,2.001,4.906,2.001h.259c2.066,0,3.722-.666,4.97-2.001,1.247-1.333,1.873-3.248,1.873-5.746v-22.594h6.584v21.949c0,4.735-1.227,8.285-3.68,10.651-2.453,2.367-5.66,3.551-9.619,3.551h-.517c-3.959,0-7.165-1.184-9.619-3.551Z"/>
      <path class="cls-1" d="M305.854,46.221l-3.616,7.747v37.7h-6.584V1.291h6.584v41.961L318.635,1.291h6.326l-14.718,38.217,15.494,52.16h-6.584l-13.299-45.447Z"/>
      <path class="cls-1" d="M330.641,82.372h8.651v9.296h-8.651v-9.296Z"/>
      <path class="cls-1" d="M387.577,47.77h-4.26v43.897h-11.749V1.291h16.784c5.078,0,9.058,1.42,11.943,4.261,2.883,2.84,4.326,6.843,4.326,12.007v13.944c0,2.669-.452,4.951-1.356,6.843-.904,1.894-2.389,3.444-4.455,4.648,4.303,2.498,6.455,6.456,6.455,11.878v36.796h-11.748v-38.087c0-3.873-1.981-5.81-5.94-5.81ZM387.061,38.603c4.044,0,6.068-1.936,6.068-5.81v-15.622c0-3.873-2.023-5.81-6.068-5.81h-3.745v27.242h3.745Z"/>
      <path class="cls-1" d="M420.501,1.291h15.106l10.587,90.377h-12.007l-1.42-22.078h-9.554l-1.42,22.078h-11.878L420.501,1.291ZM432.12,59.648l-3.357-36.28-.646-11.749-.775,11.749-3.486,36.28h8.263Z"/>
      <path class="cls-1" d="M454.519,88.956c-2.969-2.84-4.454-7.014-4.454-12.523V1.291h11.749v76.433c0,1.723.451,3.056,1.355,4.002.904.948,2.087,1.42,3.551,1.42h.258c1.549,0,2.775-.472,3.68-1.42.904-.946,1.355-2.279,1.355-4.002V1.291h11.749v75.142c0,5.509-1.485,9.683-4.455,12.523-2.969,2.84-6.994,4.261-12.072,4.261h-.775c-4.993,0-8.973-1.42-11.943-4.261Z"/>
      <path class="cls-1" d="M491.638,1.291h13.685l7.101,55.13,1.034,15.493.904-15.493,7.101-55.13h13.685v90.377h-10.071v-43.897l.646-27.758h-.129l-2.841,27.758-6.198,43.897h-6.325l-6.198-43.897-2.712-27.758h-.258l.775,27.758v43.897h-10.2V1.291Z"/>
      <path class="cls-1" d="M541.216,79.144h12.524v12.523h-12.524v-12.523Z"/>
    </g>
  </g>
</svg>